<svg xmlns="http://www.w3.org/2000/svg" version="1.1" xmlns:xlink="http://www.w3.org/1999/xlink" xmlns:svgjs="http://svgjs.dev/svgjs" viewBox="0 0 128 128">
    <g transform="matrix(0.8046875,0,0,0.8046875,12.221578124999994,12.220445793576118)"><svg viewBox="0 0 96 96" data-background-color="#db3d96" preserveAspectRatio="xMidYMid meet" height="128" width="128" xmlns="http://www.w3.org/2000/svg" xmlns:xlink="http://www.w3.org/1999/xlink"><g id="tight-bounds" transform="matrix(1,0,0,1,0.25950000000000273,0.26055537686109176)"><svg viewBox="0 0 95.481 95.4788892462778" height="95.4788892462778" width="95.481"><g><svg viewBox="0 0 95.481 95.4788892462778" height="95.4788892462778" width="95.481"><g><svg viewBox="0 0 95.481 95.4788892462778" height="95.4788892462778" width="95.481"><g id="textblocktransform"><svg viewBox="0 0 95.481 95.4788892462778" height="95.4788892462778" width="95.481" id="textblock"><g><svg viewBox="0 0 95.481 95.4788892462778" height="95.4788892462778" width="95.481"><g><svg viewBox="0 0 95.481 95.4788892462778" height="95.4788892462778" width="95.481"><g><svg xmlns="http://www.w3.org/2000/svg" xmlns:xlink="http://www.w3.org/1999/xlink" version="1.0" x="0" y="0" viewBox="4.764 3.721 90.471 90.469" enable-background="new 0 0 100 100" xml:space="preserve" height="95.4788892462778" width="95.481" class="icon-icon-0" data-fill-palette-color="accent" id="icon-0"><path d="M32.864 61.293C26.817 67.455 21.307 73.536 16.449 79.376 22.203 75.474 28.21 71.046 34.341 66.173A346 346 0 0 1 40.028 57.705 349 349 0 0 1 32.864 61.293" fill="hsl(11 80% 60%)" data-fill-palette-color="accent"></path><path d="M26.151 54.572C19.323 57.362 12.898 60.247 7 63.167 13.839 61.932 21.127 60.315 28.704 58.345A345 345 0 0 1 36.067 53.688C32.703 54.038 29.4 54.328 26.151 54.572" fill="hsl(11 80% 60%)" data-fill-palette-color="accent"></path><path d="M62.891 28.12C65.747 21.32 68.251 14.737 70.357 8.5 66.394 14.21 62.384 20.507 58.42 27.258A344 344 0 0 1 56.505 35.758 343 343 0 0 1 62.891 28.12" fill="hsl(11 80% 60%)" data-fill-palette-color="accent"></path><path d="M37.108 69.79C34.252 76.592 31.748 83.176 29.643 89.412 33.606 83.701 37.616 77.404 41.58 70.653A344 344 0 0 1 43.495 62.154 343 343 0 0 1 37.108 69.791" fill="hsl(11 80% 60%)" data-fill-palette-color="accent"></path><path d="M53.393 28.114C53.312 19.482 52.908 11.285 52.213 3.721 50.904 10.549 49.787 17.927 48.9 25.708 49.589 28.974 50.249 32.308 50.865 35.718A351 351 0 0 1 53.393 28.113" fill="hsl(11 80% 60%)" data-fill-palette-color="accent"></path><path d="M29.16 45.562C20.525 45.644 12.33 46.047 4.764 46.742 11.593 48.052 18.972 49.168 26.753 50.057A344 344 0 0 1 36.763 48.091 349 349 0 0 1 29.158 45.562" fill="hsl(11 80% 60%)" data-fill-palette-color="accent"></path><path d="M44.383 25.107C41.593 18.279 38.71 11.853 35.788 5.954 37.024 12.794 38.641 20.082 40.611 27.66A344 344 0 0 1 45.267 35.023 343 343 0 0 1 44.383 25.107" fill="hsl(11 80% 60%)" data-fill-palette-color="accent"></path><path d="M29.165 36.063C22.365 33.207 15.78 30.703 9.545 28.598 15.255 32.56 21.55 36.57 28.303 40.536 31.098 41.13 33.93 41.765 36.802 42.45A343 343 0 0 1 29.165 36.063" fill="hsl(11 80% 60%)" data-fill-palette-color="accent"></path><path d="M37.662 31.818C31.5 25.772 25.42 20.262 19.58 15.404 23.482 21.158 27.91 27.165 32.783 33.296A346 346 0 0 1 41.25 38.983 349 349 0 0 1 37.662 31.818" fill="hsl(11 80% 60%)" data-fill-palette-color="accent"></path><path d="M70.835 61.847C77.635 64.703 84.22 67.207 90.455 69.313 84.745 65.35 78.45 61.339 71.697 57.374A345 345 0 0 1 63.198 55.46 343 343 0 0 1 70.835 61.847" fill="hsl(11 80% 60%)" data-fill-palette-color="accent"></path><path d="M73.849 43.338C80.677 40.55 87.103 37.664 93 34.744 86.161 35.979 78.873 37.596 71.296 39.566A345 345 0 0 1 63.933 44.223 343 343 0 0 1 73.849 43.338" fill="hsl(11 80% 60%)" data-fill-palette-color="accent"></path><path d="M70.842 52.349C79.474 52.267 87.67 51.864 95.235 51.169 88.407 49.859 81.028 48.743 73.248 47.854 69.982 48.544 66.648 49.204 63.238 49.82 65.82 50.645 68.353 51.49 70.842 52.35" fill="hsl(11 80% 60%)" data-fill-palette-color="accent"></path><path d="M62.338 66.091C68.5 72.138 74.58 77.648 80.42 82.506 76.518 76.753 72.09 70.746 67.217 64.615A346 346 0 0 1 58.75 58.927 349 349 0 0 1 62.338 66.091" fill="hsl(11 80% 60%)" data-fill-palette-color="accent"></path><path d="M46.607 69.797C46.689 78.43 47.092 86.625 47.787 94.19 49.096 87.362 50.213 79.983 51.102 72.203 50.412 68.937 49.752 65.603 49.135 62.193A349 349 0 0 1 46.607 69.798" fill="hsl(11 80% 60%)" data-fill-palette-color="accent"></path><path d="M55.617 72.804C58.407 79.632 61.291 86.058 64.212 91.957 62.976 85.117 61.359 77.829 59.389 70.25A345 345 0 0 1 54.733 62.888C55.083 66.252 55.373 69.556 55.617 72.804" fill="hsl(11 80% 60%)" data-fill-palette-color="accent"></path><path d="M67.137 36.617C73.183 30.456 78.693 24.375 83.55 18.535 77.797 22.437 71.79 26.865 65.659 31.738A346 346 0 0 1 59.973 40.206 349 349 0 0 1 67.137 36.617" fill="hsl(11 80% 60%)" data-fill-palette-color="accent"></path><path d="M65.66 31.738C69.93 25.177 73.775 18.778 77.116 12.683 72.477 17.351 67.703 22.53 62.891 28.121A343 343 0 0 1 58.908 37.244 345 345 0 0 1 65.659 31.738" fill="hsl(11 80% 60%)" data-fill-palette-color="accent"></path><path d="M73.248 47.854C80.908 46.234 88.152 44.429 94.824 42.482 88.242 42.502 81.204 42.787 73.849 43.338A343 343 0 0 1 64.58 46.973C67.52 47.233 70.409 47.53 73.248 47.853" fill="hsl(11 80% 60%)" data-fill-palette-color="accent"></path><path d="M61.461 42.273C64.788 41.303 68.065 40.406 71.296 39.566 77.862 35.298 83.966 31.006 89.492 26.786 82.412 29.542 74.898 32.839 67.137 36.618A349 349 0 0 1 61.46 42.273" fill="hsl(11 80% 60%)" data-fill-palette-color="accent"></path><path d="M53.38 36.127A341 341 0 0 1 58.418 27.258C60.044 19.598 61.325 12.245 62.249 5.355 59.191 12.308 56.21 19.953 53.393 28.114 53.418 30.747 53.416 33.417 53.38 36.127" fill="hsl(11 80% 60%)" data-fill-palette-color="accent"></path><path d="M48.899 25.708C47.279 18.048 45.474 10.804 43.527 4.132 43.546 10.714 43.832 17.752 44.383 25.107A343 343 0 0 1 48.017 34.375C48.278 31.435 48.574 28.547 48.9 25.708" fill="hsl(11 80% 60%)" data-fill-palette-color="accent"></path><path d="M32.783 33.296C26.22 29.024 19.823 25.179 13.728 21.837 18.395 26.477 23.574 31.252 29.165 36.063A343 343 0 0 1 38.288 40.047 345 345 0 0 1 32.783 33.296" fill="hsl(11 80% 60%)" data-fill-palette-color="accent"></path><path d="M56.682 60.416C57.652 63.743 58.549 67.02 59.389 70.25 63.657 76.817 67.95 82.92 72.17 88.447 69.414 81.367 66.117 73.853 62.338 66.091A349 349 0 0 1 56.682 60.416" fill="hsl(11 80% 60%)" data-fill-palette-color="accent"></path><path d="M51.102 72.203C52.72 79.863 54.526 87.107 56.474 93.779 56.454 87.197 56.168 80.159 55.617 72.804A343 343 0 0 1 51.983 63.536C51.722 66.476 51.426 69.364 51.102 72.203" fill="hsl(11 80% 60%)" data-fill-palette-color="accent"></path><path d="M67.217 64.615C73.78 68.887 80.177 72.732 86.272 76.073 81.605 71.433 76.426 66.658 70.835 61.847A343 343 0 0 1 61.712 57.863 345 345 0 0 1 67.217 64.615" fill="hsl(11 80% 60%)" data-fill-palette-color="accent"></path><path d="M46.621 61.784A346 346 0 0 1 41.581 70.653C39.956 78.313 38.675 85.666 37.751 92.556 40.809 85.603 43.79 77.958 46.607 69.797A350 350 0 0 1 46.62 61.784" fill="hsl(11 80% 60%)" data-fill-palette-color="accent"></path><path d="M70.842 52.349C68.209 52.373 65.539 52.37 62.829 52.334A347 347 0 0 1 71.697 57.374C79.358 59 86.71 60.281 93.601 61.205 86.647 58.146 79.002 55.165 70.84 52.35" fill="hsl(11 80% 60%)" data-fill-palette-color="accent"></path><path d="M43.318 37.494A347 347 0 0 1 40.61 27.66C36.343 21.094 32.05 14.99 27.83 9.463 30.585 16.543 33.882 24.057 37.661 31.818A349 349 0 0 1 43.319 37.494" fill="hsl(11 80% 60%)" data-fill-palette-color="accent"></path><path d="M26.753 50.057C19.093 51.676 11.848 53.482 5.176 55.429 11.758 55.409 18.796 55.124 26.151 54.572A343 343 0 0 1 35.42 50.938C32.48 50.678 29.59 50.381 26.753 50.057" fill="hsl(11 80% 60%)" data-fill-palette-color="accent"></path><path d="M34.34 66.173C30.07 72.734 26.225 79.133 22.884 85.228 27.523 80.56 32.297 75.382 37.108 69.791A342 342 0 0 1 41.092 60.667 345 345 0 0 1 34.341 66.173" fill="hsl(11 80% 60%)" data-fill-palette-color="accent"></path><path d="M37.172 45.576A346 346 0 0 1 28.302 40.536C20.643 38.911 13.29 37.63 6.4 36.706 13.353 39.763 21 42.745 29.16 45.561 31.792 45.537 34.462 45.54 37.172 45.576" fill="hsl(11 80% 60%)" data-fill-palette-color="accent"></path><path d="M38.54 55.637C35.213 56.607 31.935 57.505 28.704 58.345 22.138 62.613 16.034 66.905 10.508 71.124 17.588 68.37 25.102 65.073 32.864 61.294A350 350 0 0 1 38.54 55.636" fill="hsl(11 80% 60%)" data-fill-palette-color="accent"></path></svg></g></svg></g></svg></g></svg></g></svg></g></svg></g><defs></defs></svg><rect width="95.481" height="95.4788892462778" fill="none" stroke="none" visibility="hidden"></rect></g></svg></g>
</svg>